<svg xmlns="http://www.w3.org/2000/svg" version="1.1" width="960" height="960" viewBox="0 0 960 960"><title>Calderon &amp; Berges - Logo (layered)</title><g id="mark"><path d="M 655.00 148.00 L 624.00 158.00 L 448.00 414.00 L 413.00 454.00 L 397.00 463.00 L 367.00 469.00 L 342.00 466.00 L 322.00 458.00 L 298.00 437.00 L 287.00 419.00 L 281.00 397.00 L 282.00 373.00 L 291.00 347.00 L 316.00 319.00 L 352.00 304.00 L 499.00 303.00 L 522.00 270.00 L 352.00 270.00 L 320.00 278.00 L 290.00 296.00 L 262.00 328.00 L 247.00 372.00 L 247.00 403.00 L 252.00 425.00 L 272.00 460.00 L 298.00 484.00 L 328.00 498.00 L 355.00 503.00 L 396.00 499.00 L 437.00 479.00 L 454.00 462.00 L 651.00 179.00 Z" fill="#F19F53" fill-rule="evenodd" /><path d="M 700.00 296.00 L 688.00 284.00 L 665.00 272.00 L 641.00 268.00 L 616.00 268.00 L 612.00 270.00 L 591.00 301.00 L 592.00 303.00 L 648.00 303.00 L 663.00 310.00 L 676.00 328.00 L 676.00 345.00 L 672.00 354.00 L 665.00 362.00 L 654.00 369.00 L 620.00 369.00 L 597.00 400.00 L 600.00 403.00 L 653.00 402.00 L 662.00 407.00 L 672.00 417.00 L 677.00 432.00 L 675.00 446.00 L 663.00 461.00 L 647.00 468.00 L 475.00 468.00 L 450.00 501.00 L 453.00 503.00 L 644.00 503.00 L 668.00 498.00 L 690.00 485.00 L 706.00 467.00 L 714.00 446.00 L 714.00 423.00 L 705.00 400.00 L 693.00 386.00 L 708.00 366.00 L 714.00 348.00 L 715.00 336.00 L 713.00 320.00 Z" fill="#34588C" fill-rule="evenodd" /></g><g id="wordmark" transform="translate(0 523)"><path d="M 886.00 61.00 L 883.00 64.00 L 883.00 65.00 L 881.00 68.00 L 881.00 73.00 L 882.00 74.00 L 882.00 76.00 L 883.00 77.00 L 883.00 78.00 L 885.00 80.00 L 886.00 80.00 L 887.00 81.00 L 890.00 81.00 L 891.00 82.00 L 899.00 82.00 L 900.00 83.00 L 911.00 83.00 L 912.00 84.00 L 913.00 84.00 L 916.00 87.00 L 916.00 92.00 L 912.00 96.00 L 911.00 96.00 L 910.00 97.00 L 907.00 97.00 L 906.00 98.00 L 898.00 98.00 L 897.00 97.00 L 893.00 97.00 L 892.00 96.00 L 891.00 96.00 L 890.00 95.00 L 889.00 95.00 L 888.00 94.00 L 887.00 94.00 L 884.00 91.00 L 883.00 91.00 L 880.00 94.00 L 880.00 96.00 L 881.00 97.00 L 882.00 97.00 L 884.00 99.00 L 886.00 99.00 L 887.00 100.00 L 889.00 100.00 L 890.00 101.00 L 895.00 101.00 L 896.00 102.00 L 898.00 102.00 L 899.00 103.00 L 906.00 103.00 L 907.00 102.00 L 911.00 102.00 L 913.00 100.00 L 916.00 100.00 L 921.00 95.00 L 921.00 94.00 L 922.00 93.00 L 922.00 85.00 L 921.00 84.00 L 921.00 83.00 L 917.00 79.00 L 915.00 79.00 L 914.00 78.00 L 906.00 78.00 L 905.00 77.00 L 893.00 77.00 L 892.00 76.00 L 891.00 76.00 L 890.00 75.00 L 889.00 75.00 L 887.00 73.00 L 887.00 69.00 L 892.00 64.00 L 893.00 64.00 L 894.00 63.00 L 899.00 63.00 L 900.00 62.00 L 903.00 62.00 L 904.00 63.00 L 910.00 63.00 L 911.00 64.00 L 912.00 64.00 L 913.00 65.00 L 914.00 65.00 L 915.00 66.00 L 916.00 66.00 L 917.00 67.00 L 918.00 67.00 L 921.00 64.00 L 921.00 62.00 L 920.00 61.00 L 917.00 61.00 L 916.00 60.00 L 913.00 60.00 L 911.00 58.00 L 893.00 58.00 L 892.00 59.00 L 890.00 59.00 L 889.00 60.00 L 888.00 60.00 L 887.00 61.00 Z M 772.00 70.00 L 772.00 71.00 L 771.00 72.00 L 771.00 74.00 L 770.00 75.00 L 770.00 84.00 L 771.00 85.00 L 771.00 88.00 L 772.00 89.00 L 772.00 90.00 L 773.00 91.00 L 773.00 92.00 L 781.00 100.00 L 783.00 100.00 L 784.00 101.00 L 786.00 101.00 L 787.00 102.00 L 791.00 102.00 L 792.00 103.00 L 799.00 103.00 L 800.00 102.00 L 804.00 102.00 L 805.00 101.00 L 807.00 101.00 L 808.00 100.00 L 810.00 100.00 L 811.00 99.00 L 812.00 99.00 L 813.00 98.00 L 814.00 98.00 L 817.00 95.00 L 817.00 93.00 L 816.00 92.00 L 816.00 84.00 L 817.00 83.00 L 817.00 82.00 L 816.00 81.00 L 800.00 81.00 L 798.00 79.00 L 797.00 80.00 L 797.00 85.00 L 798.00 86.00 L 799.00 85.00 L 809.00 85.00 L 811.00 87.00 L 811.00 92.00 L 808.00 95.00 L 807.00 95.00 L 804.00 97.00 L 800.00 97.00 L 799.00 98.00 L 792.00 98.00 L 791.00 97.00 L 788.00 97.00 L 787.00 96.00 L 785.00 96.00 L 779.00 90.00 L 779.00 89.00 L 778.00 88.00 L 778.00 87.00 L 776.00 84.00 L 776.00 77.00 L 777.00 76.00 L 777.00 74.00 L 778.00 73.00 L 778.00 72.00 L 779.00 71.00 L 779.00 70.00 L 781.00 68.00 L 782.00 68.00 L 786.00 64.00 L 788.00 64.00 L 789.00 63.00 L 792.00 63.00 L 793.00 62.00 L 798.00 62.00 L 799.00 63.00 L 801.00 63.00 L 802.00 64.00 L 804.00 64.00 L 805.00 65.00 L 807.00 65.00 L 809.00 67.00 L 810.00 67.00 L 812.00 69.00 L 813.00 69.00 L 815.00 67.00 L 815.00 65.00 L 816.00 64.00 L 815.00 63.00 L 814.00 63.00 L 813.00 62.00 L 811.00 62.00 L 810.00 61.00 L 808.00 61.00 L 806.00 59.00 L 803.00 59.00 L 802.00 58.00 L 789.00 58.00 L 788.00 59.00 L 785.00 59.00 L 783.00 61.00 L 782.00 61.00 L 781.00 62.00 L 780.00 62.00 L 779.00 63.00 L 778.00 63.00 L 775.00 66.00 L 775.00 67.00 Z M 720.00 58.00 L 719.00 59.00 L 719.00 60.00 L 720.00 61.00 L 720.00 98.00 L 719.00 99.00 L 719.00 101.00 L 720.00 102.00 L 725.00 102.00 L 727.00 100.00 L 726.00 99.00 L 726.00 84.00 L 728.00 82.00 L 737.00 82.00 L 738.00 83.00 L 740.00 83.00 L 745.00 88.00 L 745.00 89.00 L 747.00 91.00 L 747.00 92.00 L 748.00 93.00 L 748.00 94.00 L 751.00 97.00 L 751.00 98.00 L 752.00 99.00 L 752.00 101.00 L 753.00 102.00 L 757.00 102.00 L 759.00 100.00 L 758.00 99.00 L 758.00 98.00 L 757.00 97.00 L 757.00 96.00 L 756.00 95.00 L 756.00 94.00 L 752.00 90.00 L 752.00 89.00 L 751.00 88.00 L 751.00 86.00 L 749.00 84.00 L 752.00 81.00 L 753.00 81.00 L 754.00 80.00 L 755.00 80.00 L 756.00 79.00 L 757.00 79.00 L 758.00 78.00 L 758.00 77.00 L 759.00 76.00 L 759.00 73.00 L 760.00 72.00 L 760.00 69.00 L 759.00 68.00 L 759.00 66.00 L 758.00 65.00 L 758.00 64.00 L 754.00 60.00 L 753.00 60.00 L 752.00 59.00 L 749.00 59.00 L 748.00 58.00 Z M 726.00 65.00 L 728.00 63.00 L 750.00 63.00 L 752.00 65.00 L 752.00 66.00 L 754.00 68.00 L 754.00 73.00 L 750.00 77.00 L 748.00 77.00 L 747.00 78.00 L 744.00 78.00 L 743.00 77.00 L 742.00 78.00 L 728.00 78.00 L 726.00 76.00 Z M 435.00 59.00 L 434.00 60.00 L 435.00 61.00 L 435.00 100.00 L 437.00 102.00 L 439.00 102.00 L 441.00 100.00 L 441.00 99.00 L 440.00 98.00 L 440.00 70.00 L 442.00 68.00 L 446.00 72.00 L 446.00 73.00 L 452.00 79.00 L 452.00 80.00 L 455.00 83.00 L 456.00 83.00 L 458.00 85.00 L 458.00 86.00 L 464.00 92.00 L 464.00 93.00 L 469.00 98.00 L 469.00 100.00 L 471.00 102.00 L 477.00 102.00 L 478.00 101.00 L 478.00 100.00 L 477.00 99.00 L 477.00 61.00 L 478.00 60.00 L 478.00 59.00 L 477.00 58.00 L 472.00 58.00 L 471.00 59.00 L 471.00 60.00 L 472.00 61.00 L 472.00 88.00 L 470.00 90.00 L 463.00 83.00 L 463.00 82.00 L 457.00 76.00 L 457.00 75.00 L 451.00 69.00 L 450.00 69.00 L 447.00 66.00 L 447.00 64.00 L 446.00 63.00 L 446.00 59.00 L 445.00 58.00 L 437.00 58.00 L 436.00 59.00 Z M 379.00 61.00 L 372.00 68.00 L 372.00 69.00 L 371.00 70.00 L 371.00 71.00 L 370.00 72.00 L 370.00 74.00 L 369.00 75.00 L 369.00 86.00 L 370.00 87.00 L 370.00 88.00 L 371.00 89.00 L 371.00 90.00 L 372.00 91.00 L 372.00 92.00 L 373.00 93.00 L 373.00 94.00 L 375.00 96.00 L 376.00 96.00 L 379.00 99.00 L 380.00 99.00 L 381.00 100.00 L 383.00 100.00 L 384.00 101.00 L 386.00 101.00 L 387.00 102.00 L 390.00 102.00 L 391.00 103.00 L 399.00 103.00 L 400.00 102.00 L 404.00 102.00 L 405.00 101.00 L 407.00 101.00 L 408.00 100.00 L 410.00 100.00 L 413.00 97.00 L 414.00 97.00 L 416.00 95.00 L 416.00 94.00 L 418.00 92.00 L 418.00 91.00 L 419.00 90.00 L 419.00 89.00 L 420.00 88.00 L 420.00 86.00 L 421.00 85.00 L 421.00 75.00 L 420.00 74.00 L 420.00 71.00 L 415.00 66.00 L 415.00 65.00 L 411.00 61.00 L 409.00 61.00 L 407.00 59.00 L 404.00 59.00 L 403.00 58.00 L 386.00 58.00 L 385.00 59.00 L 383.00 59.00 L 382.00 60.00 L 381.00 60.00 L 380.00 61.00 Z M 387.00 63.00 L 391.00 63.00 L 392.00 62.00 L 398.00 62.00 L 399.00 63.00 L 401.00 63.00 L 402.00 64.00 L 404.00 64.00 L 405.00 65.00 L 406.00 65.00 L 408.00 67.00 L 409.00 67.00 L 411.00 69.00 L 411.00 70.00 L 413.00 72.00 L 413.00 73.00 L 415.00 75.00 L 415.00 85.00 L 413.00 87.00 L 413.00 88.00 L 412.00 89.00 L 412.00 90.00 L 407.00 95.00 L 405.00 95.00 L 404.00 96.00 L 403.00 96.00 L 402.00 97.00 L 400.00 97.00 L 399.00 98.00 L 392.00 98.00 L 391.00 97.00 L 388.00 97.00 L 387.00 96.00 L 384.00 96.00 L 380.00 92.00 L 380.00 91.00 L 377.00 88.00 L 377.00 87.00 L 376.00 86.00 L 376.00 85.00 L 375.00 84.00 L 375.00 76.00 L 377.00 74.00 L 377.00 72.00 L 378.00 71.00 L 378.00 70.00 L 380.00 68.00 L 381.00 68.00 L 385.00 64.00 L 386.00 64.00 Z M 320.00 58.00 L 319.00 59.00 L 319.00 99.00 L 317.00 101.00 L 318.00 102.00 L 325.00 102.00 L 326.00 101.00 L 325.00 100.00 L 325.00 84.00 L 327.00 82.00 L 337.00 82.00 L 338.00 83.00 L 339.00 83.00 L 343.00 87.00 L 343.00 88.00 L 345.00 90.00 L 345.00 91.00 L 347.00 93.00 L 347.00 94.00 L 348.00 95.00 L 348.00 96.00 L 351.00 99.00 L 351.00 101.00 L 352.00 102.00 L 357.00 102.00 L 358.00 101.00 L 358.00 99.00 L 356.00 97.00 L 356.00 96.00 L 354.00 94.00 L 354.00 93.00 L 351.00 90.00 L 351.00 88.00 L 349.00 86.00 L 349.00 85.00 L 348.00 84.00 L 348.00 83.00 L 350.00 81.00 L 352.00 81.00 L 353.00 80.00 L 354.00 80.00 L 358.00 76.00 L 358.00 72.00 L 359.00 71.00 L 358.00 70.00 L 358.00 66.00 L 357.00 65.00 L 357.00 64.00 L 356.00 63.00 L 356.00 62.00 L 355.00 61.00 L 354.00 61.00 L 352.00 59.00 L 337.00 59.00 L 336.00 58.00 Z M 325.00 65.00 L 327.00 63.00 L 346.00 63.00 L 347.00 64.00 L 350.00 64.00 L 352.00 66.00 L 352.00 67.00 L 353.00 68.00 L 353.00 73.00 L 349.00 77.00 L 347.00 77.00 L 346.00 78.00 L 327.00 78.00 L 325.00 76.00 Z M 269.00 58.00 L 267.00 60.00 L 268.00 61.00 L 268.00 99.00 L 266.00 101.00 L 267.00 102.00 L 302.00 102.00 L 303.00 103.00 L 304.00 103.00 L 305.00 102.00 L 305.00 97.00 L 304.00 96.00 L 303.00 97.00 L 276.00 97.00 L 274.00 95.00 L 274.00 84.00 L 276.00 82.00 L 293.00 82.00 L 294.00 83.00 L 295.00 82.00 L 295.00 77.00 L 294.00 76.00 L 293.00 76.00 L 292.00 77.00 L 276.00 77.00 L 274.00 75.00 L 274.00 65.00 L 276.00 63.00 L 303.00 63.00 L 304.00 62.00 L 304.00 59.00 L 303.00 58.00 Z M 210.00 59.00 L 209.00 60.00 L 210.00 61.00 L 210.00 63.00 L 211.00 64.00 L 211.00 65.00 L 210.00 66.00 L 210.00 83.00 L 211.00 84.00 L 211.00 86.00 L 210.00 87.00 L 210.00 100.00 L 209.00 101.00 L 210.00 102.00 L 231.00 102.00 L 232.00 101.00 L 239.00 101.00 L 240.00 100.00 L 243.00 100.00 L 244.00 99.00 L 245.00 99.00 L 251.00 93.00 L 251.00 92.00 L 252.00 91.00 L 252.00 89.00 L 253.00 88.00 L 253.00 85.00 L 254.00 84.00 L 254.00 76.00 L 253.00 75.00 L 253.00 72.00 L 252.00 71.00 L 252.00 70.00 L 251.00 69.00 L 251.00 68.00 L 250.00 67.00 L 250.00 66.00 L 246.00 62.00 L 245.00 62.00 L 243.00 60.00 L 242.00 60.00 L 241.00 59.00 L 235.00 59.00 L 234.00 58.00 L 219.00 58.00 L 218.00 59.00 L 217.00 59.00 L 216.00 58.00 L 213.00 58.00 L 212.00 59.00 Z M 219.00 63.00 L 238.00 63.00 L 241.00 66.00 L 242.00 66.00 L 245.00 69.00 L 245.00 70.00 L 246.00 71.00 L 246.00 73.00 L 247.00 74.00 L 247.00 76.00 L 248.00 77.00 L 248.00 84.00 L 247.00 85.00 L 247.00 87.00 L 246.00 88.00 L 246.00 89.00 L 244.00 91.00 L 244.00 92.00 L 241.00 95.00 L 240.00 95.00 L 238.00 97.00 L 219.00 97.00 L 216.00 94.00 L 216.00 69.00 L 217.00 68.00 L 217.00 65.00 Z M 162.00 58.00 L 161.00 59.00 L 161.00 60.00 L 162.00 61.00 L 162.00 65.00 L 163.00 66.00 L 163.00 68.00 L 162.00 69.00 L 162.00 84.00 L 163.00 85.00 L 163.00 87.00 L 162.00 88.00 L 162.00 100.00 L 161.00 101.00 L 162.00 102.00 L 196.00 102.00 L 197.00 103.00 L 199.00 101.00 L 199.00 97.00 L 198.00 96.00 L 197.00 96.00 L 196.00 97.00 L 171.00 97.00 L 169.00 95.00 L 169.00 94.00 L 168.00 93.00 L 168.00 68.00 L 169.00 67.00 L 169.00 66.00 L 168.00 65.00 L 168.00 63.00 L 169.00 62.00 L 169.00 60.00 L 167.00 58.00 Z M 123.00 58.00 L 122.00 59.00 L 122.00 60.00 L 123.00 61.00 L 123.00 62.00 L 122.00 63.00 L 122.00 67.00 L 119.00 70.00 L 119.00 71.00 L 118.00 72.00 L 118.00 73.00 L 117.00 74.00 L 117.00 76.00 L 116.00 77.00 L 116.00 78.00 L 114.00 80.00 L 114.00 82.00 L 113.00 83.00 L 113.00 84.00 L 112.00 85.00 L 112.00 88.00 L 111.00 89.00 L 111.00 90.00 L 108.00 93.00 L 108.00 95.00 L 107.00 96.00 L 107.00 97.00 L 106.00 98.00 L 106.00 99.00 L 105.00 100.00 L 105.00 101.00 L 106.00 102.00 L 111.00 102.00 L 112.00 101.00 L 112.00 97.00 L 113.00 96.00 L 113.00 95.00 L 114.00 94.00 L 114.00 93.00 L 117.00 90.00 L 137.00 90.00 L 139.00 92.00 L 139.00 93.00 L 140.00 94.00 L 140.00 95.00 L 141.00 96.00 L 141.00 97.00 L 142.00 98.00 L 142.00 100.00 L 144.00 102.00 L 149.00 102.00 L 150.00 101.00 L 149.00 100.00 L 149.00 99.00 L 148.00 98.00 L 148.00 96.00 L 147.00 95.00 L 147.00 94.00 L 146.00 93.00 L 146.00 92.00 L 144.00 90.00 L 144.00 89.00 L 143.00 88.00 L 143.00 86.00 L 142.00 85.00 L 142.00 84.00 L 141.00 83.00 L 141.00 81.00 L 140.00 80.00 L 140.00 79.00 L 139.00 78.00 L 139.00 77.00 L 138.00 76.00 L 138.00 74.00 L 137.00 73.00 L 137.00 72.00 L 136.00 71.00 L 136.00 70.00 L 134.00 68.00 L 134.00 67.00 L 133.00 66.00 L 133.00 63.00 L 132.00 62.00 L 132.00 61.00 L 133.00 60.00 L 131.00 58.00 Z M 127.00 67.00 L 130.00 70.00 L 130.00 72.00 L 131.00 73.00 L 131.00 75.00 L 132.00 76.00 L 132.00 77.00 L 133.00 78.00 L 133.00 79.00 L 134.00 80.00 L 134.00 81.00 L 135.00 82.00 L 135.00 83.00 L 133.00 85.00 L 121.00 85.00 L 119.00 83.00 L 119.00 82.00 L 120.00 81.00 L 120.00 80.00 L 121.00 79.00 L 121.00 78.00 L 122.00 77.00 L 122.00 76.00 L 123.00 75.00 L 123.00 73.00 L 124.00 72.00 L 124.00 71.00 L 125.00 70.00 L 125.00 69.00 Z M 867.00 57.00 L 866.00 57.00 L 865.00 58.00 L 833.00 58.00 L 831.00 60.00 L 832.00 61.00 L 832.00 99.00 L 831.00 100.00 L 833.00 102.00 L 865.00 102.00 L 866.00 103.00 L 868.00 103.00 L 869.00 102.00 L 869.00 98.00 L 867.00 96.00 L 866.00 97.00 L 840.00 97.00 L 838.00 95.00 L 838.00 84.00 L 840.00 82.00 L 841.00 82.00 L 842.00 81.00 L 844.00 81.00 L 845.00 82.00 L 847.00 82.00 L 848.00 81.00 L 850.00 81.00 L 851.00 82.00 L 856.00 82.00 L 857.00 83.00 L 858.00 83.00 L 859.00 82.00 L 859.00 77.00 L 858.00 76.00 L 857.00 77.00 L 840.00 77.00 L 838.00 75.00 L 838.00 65.00 L 840.00 63.00 L 865.00 63.00 L 866.00 64.00 L 867.00 64.00 L 869.00 62.00 L 869.00 59.00 Z M 705.00 57.00 L 704.00 57.00 L 703.00 58.00 L 682.00 58.00 L 681.00 59.00 L 677.00 59.00 L 676.00 58.00 L 669.00 58.00 L 668.00 59.00 L 668.00 60.00 L 669.00 61.00 L 669.00 99.00 L 667.00 101.00 L 668.00 102.00 L 703.00 102.00 L 705.00 104.00 L 706.00 103.00 L 706.00 97.00 L 705.00 96.00 L 704.00 96.00 L 703.00 97.00 L 677.00 97.00 L 675.00 95.00 L 675.00 84.00 L 677.00 82.00 L 685.00 82.00 L 686.00 81.00 L 688.00 81.00 L 689.00 82.00 L 693.00 82.00 L 694.00 83.00 L 695.00 83.00 L 696.00 82.00 L 696.00 77.00 L 695.00 76.00 L 694.00 76.00 L 693.00 77.00 L 677.00 77.00 L 675.00 75.00 L 675.00 65.00 L 677.00 63.00 L 679.00 63.00 L 680.00 62.00 L 681.00 62.00 L 682.00 63.00 L 703.00 63.00 L 704.00 64.00 L 705.00 64.00 L 706.00 63.00 L 706.00 58.00 Z M 604.00 49.00 L 603.00 50.00 L 603.00 51.00 L 605.00 53.00 L 605.00 98.00 L 604.00 99.00 L 604.00 100.00 L 605.00 101.00 L 607.00 101.00 L 608.00 102.00 L 638.00 102.00 L 639.00 101.00 L 642.00 101.00 L 643.00 100.00 L 647.00 100.00 L 648.00 99.00 L 649.00 99.00 L 652.00 96.00 L 652.00 95.00 L 653.00 94.00 L 653.00 93.00 L 654.00 92.00 L 654.00 82.00 L 653.00 81.00 L 653.00 80.00 L 651.00 78.00 L 651.00 77.00 L 648.00 74.00 L 649.00 73.00 L 649.00 71.00 L 652.00 68.00 L 652.00 67.00 L 653.00 66.00 L 653.00 62.00 L 652.00 61.00 L 652.00 58.00 L 651.00 57.00 L 651.00 55.00 L 649.00 53.00 L 648.00 53.00 L 647.00 52.00 L 646.00 52.00 L 644.00 50.00 L 642.00 50.00 L 641.00 49.00 Z M 612.00 79.00 L 614.00 77.00 L 639.00 77.00 L 640.00 78.00 L 642.00 78.00 L 648.00 84.00 L 648.00 89.00 L 647.00 90.00 L 647.00 91.00 L 643.00 95.00 L 642.00 95.00 L 641.00 96.00 L 625.00 96.00 L 624.00 97.00 L 621.00 97.00 L 620.00 96.00 L 614.00 96.00 L 612.00 94.00 Z M 611.00 57.00 L 613.00 55.00 L 614.00 55.00 L 615.00 54.00 L 636.00 54.00 L 637.00 55.00 L 640.00 55.00 L 641.00 56.00 L 642.00 56.00 L 646.00 60.00 L 646.00 67.00 L 643.00 70.00 L 642.00 70.00 L 641.00 71.00 L 639.00 71.00 L 638.00 72.00 L 616.00 72.00 L 615.00 71.00 L 614.00 71.00 L 611.00 68.00 L 611.00 67.00 L 612.00 66.00 L 612.00 61.00 L 611.00 60.00 Z M 524.00 53.00 L 522.00 55.00 L 522.00 58.00 L 521.00 59.00 L 521.00 63.00 L 522.00 64.00 L 522.00 66.00 L 526.00 70.00 L 523.00 73.00 L 522.00 73.00 L 520.00 75.00 L 519.00 75.00 L 518.00 76.00 L 518.00 77.00 L 516.00 79.00 L 516.00 81.00 L 515.00 82.00 L 515.00 92.00 L 516.00 93.00 L 516.00 94.00 L 522.00 100.00 L 524.00 100.00 L 525.00 101.00 L 527.00 101.00 L 528.00 102.00 L 530.00 102.00 L 531.00 103.00 L 537.00 103.00 L 538.00 102.00 L 541.00 102.00 L 542.00 101.00 L 543.00 101.00 L 544.00 100.00 L 546.00 100.00 L 549.00 97.00 L 550.00 97.00 L 552.00 95.00 L 555.00 98.00 L 556.00 98.00 L 558.00 100.00 L 559.00 100.00 L 560.00 101.00 L 567.00 101.00 L 568.00 100.00 L 568.00 97.00 L 566.00 95.00 L 563.00 95.00 L 562.00 94.00 L 561.00 94.00 L 559.00 92.00 L 559.00 91.00 L 557.00 89.00 L 557.00 85.00 L 559.00 83.00 L 559.00 82.00 L 565.00 76.00 L 566.00 77.00 L 567.00 77.00 L 568.00 76.00 L 568.00 70.00 L 567.00 69.00 L 562.00 69.00 L 556.00 75.00 L 556.00 76.00 L 553.00 79.00 L 547.00 73.00 L 551.00 69.00 L 551.00 68.00 L 553.00 66.00 L 553.00 58.00 L 552.00 57.00 L 552.00 56.00 L 551.00 55.00 L 551.00 54.00 L 547.00 50.00 L 546.00 50.00 L 545.00 49.00 L 541.00 49.00 L 540.00 48.00 L 534.00 48.00 L 533.00 49.00 L 530.00 49.00 L 526.00 53.00 Z M 522.00 81.00 L 525.00 78.00 L 526.00 78.00 L 528.00 76.00 L 529.00 76.00 L 530.00 75.00 L 538.00 75.00 L 539.00 76.00 L 541.00 76.00 L 547.00 82.00 L 547.00 83.00 L 548.00 84.00 L 548.00 89.00 L 546.00 91.00 L 546.00 92.00 L 543.00 95.00 L 542.00 95.00 L 541.00 96.00 L 539.00 96.00 L 538.00 97.00 L 531.00 97.00 L 530.00 96.00 L 527.00 96.00 L 522.00 91.00 L 522.00 90.00 L 521.00 89.00 L 521.00 83.00 L 522.00 82.00 Z M 527.00 59.00 L 532.00 54.00 L 533.00 54.00 L 534.00 53.00 L 540.00 53.00 L 541.00 54.00 L 542.00 54.00 L 547.00 59.00 L 547.00 64.00 L 542.00 69.00 L 533.00 69.00 L 527.00 63.00 Z M 48.00 53.00 L 41.00 60.00 L 41.00 61.00 L 39.00 63.00 L 39.00 64.00 L 38.00 65.00 L 38.00 68.00 L 37.00 69.00 L 37.00 82.00 L 38.00 83.00 L 38.00 85.00 L 39.00 86.00 L 39.00 87.00 L 40.00 88.00 L 40.00 89.00 L 41.00 90.00 L 41.00 91.00 L 43.00 93.00 L 43.00 94.00 L 44.00 95.00 L 45.00 95.00 L 48.00 98.00 L 49.00 98.00 L 52.00 100.00 L 54.00 100.00 L 55.00 101.00 L 57.00 101.00 L 58.00 102.00 L 61.00 102.00 L 62.00 103.00 L 71.00 103.00 L 72.00 102.00 L 75.00 102.00 L 76.00 101.00 L 79.00 101.00 L 80.00 100.00 L 83.00 100.00 L 84.00 99.00 L 85.00 99.00 L 87.00 97.00 L 88.00 97.00 L 89.00 96.00 L 90.00 96.00 L 92.00 94.00 L 93.00 94.00 L 94.00 93.00 L 93.00 92.00 L 93.00 91.00 L 89.00 87.00 L 88.00 87.00 L 81.00 94.00 L 80.00 94.00 L 77.00 96.00 L 74.00 96.00 L 73.00 97.00 L 61.00 97.00 L 60.00 96.00 L 59.00 96.00 L 58.00 95.00 L 56.00 95.00 L 54.00 93.00 L 53.00 93.00 L 47.00 87.00 L 47.00 86.00 L 45.00 84.00 L 45.00 83.00 L 44.00 82.00 L 44.00 77.00 L 43.00 76.00 L 43.00 75.00 L 44.00 74.00 L 44.00 69.00 L 45.00 68.00 L 45.00 66.00 L 47.00 64.00 L 47.00 63.00 L 51.00 59.00 L 52.00 59.00 L 54.00 57.00 L 55.00 57.00 L 58.00 55.00 L 60.00 55.00 L 61.00 54.00 L 63.00 54.00 L 64.00 53.00 L 67.00 53.00 L 68.00 54.00 L 74.00 54.00 L 75.00 55.00 L 77.00 55.00 L 78.00 56.00 L 80.00 56.00 L 81.00 57.00 L 82.00 57.00 L 83.00 58.00 L 84.00 58.00 L 88.00 62.00 L 91.00 59.00 L 91.00 57.00 L 92.00 56.00 L 92.00 55.00 L 91.00 54.00 L 90.00 54.00 L 89.00 53.00 L 87.00 53.00 L 86.00 52.00 L 85.00 52.00 L 82.00 50.00 L 80.00 50.00 L 79.00 49.00 L 73.00 49.00 L 72.00 48.00 L 62.00 48.00 L 61.00 49.00 L 57.00 49.00 L 56.00 50.00 L 54.00 50.00 L 53.00 51.00 L 52.00 51.00 L 51.00 52.00 L 50.00 52.00 L 49.00 53.00 Z" fill="#34588C" fill-rule="evenodd" /></g><g id="tagline" transform="translate(0 647)"><path d="M 643.00 26.00 L 641.00 28.00 L 641.00 48.00 L 640.00 49.00 L 641.00 50.00 L 641.00 52.00 L 642.00 53.00 L 644.00 53.00 L 645.00 52.00 L 645.00 45.00 L 647.00 43.00 L 651.00 47.00 L 651.00 48.00 L 656.00 53.00 L 658.00 53.00 L 659.00 52.00 L 659.00 50.00 L 657.00 48.00 L 657.00 47.00 L 654.00 44.00 L 654.00 42.00 L 656.00 40.00 L 657.00 40.00 L 659.00 38.00 L 659.00 31.00 L 658.00 30.00 L 658.00 29.00 L 656.00 27.00 L 655.00 27.00 L 654.00 26.00 Z M 645.00 32.00 L 647.00 30.00 L 652.00 30.00 L 655.00 33.00 L 655.00 35.00 L 652.00 38.00 L 647.00 38.00 L 645.00 36.00 Z M 599.00 26.00 L 597.00 28.00 L 597.00 52.00 L 599.00 54.00 L 600.00 53.00 L 606.00 53.00 L 607.00 54.00 L 608.00 53.00 L 611.00 53.00 L 612.00 52.00 L 612.00 51.00 L 611.00 50.00 L 603.00 50.00 L 601.00 48.00 L 601.00 44.00 L 604.00 41.00 L 607.00 41.00 L 608.00 40.00 L 611.00 40.00 L 612.00 39.00 L 610.00 37.00 L 606.00 37.00 L 605.00 38.00 L 604.00 38.00 L 601.00 35.00 L 601.00 33.00 L 604.00 30.00 L 608.00 30.00 L 609.00 29.00 L 611.00 29.00 L 612.00 28.00 L 612.00 27.00 L 611.00 26.00 Z M 558.00 26.00 L 556.00 28.00 L 556.00 52.00 L 558.00 54.00 L 559.00 54.00 L 560.00 53.00 L 570.00 53.00 L 571.00 52.00 L 571.00 51.00 L 570.00 50.00 L 562.00 50.00 L 560.00 48.00 L 560.00 27.00 L 559.00 26.00 Z M 516.00 26.00 L 515.00 27.00 L 515.00 53.00 L 516.00 54.00 L 519.00 54.00 L 520.00 53.00 L 521.00 53.00 L 522.00 52.00 L 523.00 52.00 L 524.00 53.00 L 528.00 53.00 L 529.00 54.00 L 530.00 53.00 L 530.00 51.00 L 529.00 50.00 L 521.00 50.00 L 519.00 48.00 L 519.00 27.00 L 518.00 26.00 Z M 484.00 26.00 L 483.00 27.00 L 483.00 48.00 L 482.00 49.00 L 483.00 50.00 L 483.00 52.00 L 484.00 53.00 L 486.00 53.00 L 487.00 52.00 L 487.00 27.00 L 486.00 26.00 Z M 441.00 26.00 L 439.00 28.00 L 439.00 52.00 L 440.00 53.00 L 454.00 53.00 L 455.00 52.00 L 455.00 51.00 L 454.00 50.00 L 446.00 50.00 L 444.00 48.00 L 444.00 47.00 L 443.00 46.00 L 443.00 44.00 L 446.00 41.00 L 452.00 41.00 L 454.00 39.00 L 453.00 38.00 L 450.00 38.00 L 449.00 37.00 L 448.00 37.00 L 447.00 38.00 L 446.00 38.00 L 443.00 35.00 L 443.00 34.00 L 444.00 33.00 L 444.00 32.00 L 446.00 30.00 L 452.00 30.00 L 454.00 28.00 L 452.00 26.00 Z M 346.00 26.00 L 345.00 27.00 L 345.00 30.00 L 344.00 31.00 L 344.00 35.00 L 345.00 36.00 L 345.00 51.00 L 344.00 52.00 L 345.00 53.00 L 347.00 53.00 L 349.00 51.00 L 349.00 40.00 L 351.00 38.00 L 353.00 40.00 L 353.00 41.00 L 354.00 42.00 L 354.00 43.00 L 356.00 45.00 L 356.00 47.00 L 358.00 49.00 L 358.00 51.00 L 360.00 53.00 L 365.00 53.00 L 366.00 52.00 L 366.00 28.00 L 364.00 26.00 L 363.00 26.00 L 362.00 27.00 L 362.00 40.00 L 360.00 42.00 L 357.00 39.00 L 357.00 38.00 L 356.00 37.00 L 356.00 35.00 L 355.00 34.00 L 355.00 33.00 L 354.00 32.00 L 354.00 31.00 L 351.00 28.00 L 351.00 27.00 L 350.00 26.00 Z M 698.00 25.00 L 694.00 25.00 L 693.00 26.00 L 691.00 26.00 L 690.00 27.00 L 689.00 27.00 L 687.00 29.00 L 687.00 30.00 L 686.00 31.00 L 686.00 34.00 L 687.00 35.00 L 687.00 36.00 L 688.00 37.00 L 688.00 38.00 L 690.00 40.00 L 692.00 40.00 L 693.00 41.00 L 695.00 41.00 L 700.00 46.00 L 700.00 47.00 L 697.00 50.00 L 690.00 50.00 L 689.00 49.00 L 687.00 51.00 L 687.00 52.00 L 688.00 53.00 L 690.00 53.00 L 691.00 54.00 L 697.00 54.00 L 698.00 53.00 L 701.00 53.00 L 703.00 51.00 L 703.00 49.00 L 704.00 48.00 L 704.00 45.00 L 703.00 44.00 L 703.00 41.00 L 701.00 39.00 L 700.00 39.00 L 699.00 38.00 L 698.00 38.00 L 697.00 37.00 L 694.00 37.00 L 691.00 34.00 L 691.00 32.00 L 694.00 29.00 L 699.00 29.00 L 700.00 30.00 L 701.00 30.00 L 702.00 29.00 L 702.00 27.00 L 701.00 26.00 L 699.00 26.00 Z M 408.00 26.00 L 405.00 26.00 L 404.00 25.00 L 403.00 26.00 L 398.00 26.00 L 394.00 30.00 L 394.00 31.00 L 393.00 32.00 L 393.00 34.00 L 394.00 35.00 L 394.00 37.00 L 396.00 39.00 L 397.00 39.00 L 398.00 40.00 L 399.00 40.00 L 400.00 41.00 L 402.00 41.00 L 403.00 42.00 L 404.00 42.00 L 406.00 44.00 L 406.00 45.00 L 407.00 46.00 L 407.00 47.00 L 404.00 50.00 L 397.00 50.00 L 396.00 49.00 L 394.00 51.00 L 394.00 52.00 L 395.00 53.00 L 396.00 53.00 L 397.00 54.00 L 403.00 54.00 L 404.00 53.00 L 409.00 53.00 L 412.00 50.00 L 412.00 44.00 L 411.00 43.00 L 411.00 42.00 L 409.00 40.00 L 408.00 40.00 L 406.00 38.00 L 405.00 38.00 L 404.00 37.00 L 402.00 37.00 L 398.00 33.00 L 398.00 32.00 L 401.00 29.00 L 406.00 29.00 L 407.00 30.00 L 408.00 30.00 L 409.00 29.00 L 409.00 27.00 Z M 300.00 26.00 L 299.00 27.00 L 298.00 27.00 L 296.00 29.00 L 296.00 30.00 L 294.00 32.00 L 294.00 34.00 L 293.00 35.00 L 293.00 45.00 L 294.00 46.00 L 294.00 48.00 L 296.00 50.00 L 296.00 51.00 L 297.00 52.00 L 298.00 52.00 L 299.00 53.00 L 300.00 53.00 L 301.00 54.00 L 310.00 54.00 L 311.00 53.00 L 312.00 53.00 L 313.00 52.00 L 314.00 52.00 L 315.00 51.00 L 315.00 50.00 L 316.00 49.00 L 316.00 46.00 L 317.00 45.00 L 317.00 43.00 L 318.00 42.00 L 318.00 41.00 L 317.00 40.00 L 317.00 32.00 L 316.00 31.00 L 316.00 30.00 L 314.00 28.00 L 313.00 28.00 L 311.00 26.00 L 306.00 26.00 L 305.00 25.00 L 304.00 25.00 L 303.00 26.00 Z M 303.00 29.00 L 307.00 29.00 L 308.00 30.00 L 309.00 30.00 L 312.00 33.00 L 312.00 34.00 L 313.00 35.00 L 313.00 44.00 L 312.00 45.00 L 312.00 47.00 L 309.00 50.00 L 302.00 50.00 L 300.00 48.00 L 300.00 47.00 L 299.00 46.00 L 299.00 45.00 L 298.00 44.00 L 298.00 35.00 L 299.00 34.00 L 299.00 33.00 Z M 264.00 25.00 L 263.00 26.00 L 256.00 26.00 L 255.00 27.00 L 254.00 27.00 L 251.00 30.00 L 251.00 31.00 L 250.00 32.00 L 250.00 35.00 L 249.00 36.00 L 249.00 40.00 L 250.00 41.00 L 250.00 44.00 L 249.00 45.00 L 250.00 46.00 L 250.00 48.00 L 251.00 49.00 L 251.00 50.00 L 253.00 52.00 L 255.00 52.00 L 256.00 53.00 L 257.00 53.00 L 258.00 54.00 L 265.00 54.00 L 266.00 53.00 L 267.00 53.00 L 268.00 52.00 L 268.00 51.00 L 266.00 49.00 L 265.00 50.00 L 258.00 50.00 L 255.00 47.00 L 255.00 46.00 L 254.00 45.00 L 254.00 35.00 L 255.00 34.00 L 255.00 32.00 L 257.00 30.00 L 259.00 30.00 L 260.00 29.00 L 262.00 29.00 L 263.00 30.00 L 266.00 30.00 L 267.00 29.00 L 267.00 27.00 L 266.00 26.00 L 265.00 26.00 Z" fill="#34588C" fill-rule="evenodd" /></g></svg>